<mxfile host="app.diagrams.net" modified="2023-08-24T12:44:26.381Z" agent="Mozilla/5.0 (Windows NT 10.0; Win64; x64) AppleWebKit/537.36 (KHTML, like Gecko) Chrome/116.0.0.0 Safari/537.36" etag="JfYQw3G5UmNh_s5VC5RM" version="21.6.9" type="device">
  <diagram name="Page-1" id="YA4rrg4OVFSxFA_xDh1V">
    <mxGraphModel dx="1728" dy="925" grid="1" gridSize="10" guides="1" tooltips="1" connect="1" arrows="1" fold="1" page="1" pageScale="1" pageWidth="850" pageHeight="1100" math="0" shadow="0">
      <root>
        <mxCell id="0" />
        <mxCell id="1" parent="0" />
        <mxCell id="myy1mM1CxkkWLDyJXyVo-1" value="Content Server (CS)" style="rounded=0;whiteSpace=wrap;html=1;" parent="1" vertex="1">
          <mxGeometry x="320" y="160" width="120" height="50" as="geometry" />
        </mxCell>
        <mxCell id="myy1mM1CxkkWLDyJXyVo-2" value="Cluster Manager" style="rounded=0;whiteSpace=wrap;html=1;" parent="1" vertex="1">
          <mxGeometry x="320" y="270" width="120" height="50" as="geometry" />
        </mxCell>
        <mxCell id="myy1mM1CxkkWLDyJXyVo-3" value="Read Client (RC)" style="rounded=0;whiteSpace=wrap;html=1;" parent="1" vertex="1">
          <mxGeometry x="690" y="615" width="120" height="40" as="geometry" />
        </mxCell>
        <mxCell id="myy1mM1CxkkWLDyJXyVo-4" value="CS Local File" style="rounded=0;whiteSpace=wrap;html=1;" parent="1" vertex="1">
          <mxGeometry x="550" y="160" width="120" height="50" as="geometry" />
        </mxCell>
        <mxCell id="myy1mM1CxkkWLDyJXyVo-17" value="" style="curved=1;endArrow=classic;html=1;rounded=0;entryX=0.5;entryY=1;entryDx=0;entryDy=0;exitX=0.75;exitY=1;exitDx=0;exitDy=0;" parent="1" source="gHp_95_mHQC_-6yU2S7S-4" target="myy1mM1CxkkWLDyJXyVo-3" edge="1">
          <mxGeometry width="50" height="50" relative="1" as="geometry">
            <mxPoint x="650" y="730" as="sourcePoint" />
            <mxPoint x="810" y="745" as="targetPoint" />
            <Array as="points">
              <mxPoint x="600" y="700" />
              <mxPoint x="720" y="690" />
            </Array>
          </mxGeometry>
        </mxCell>
        <mxCell id="myy1mM1CxkkWLDyJXyVo-18" value="JSON Response" style="edgeLabel;html=1;align=center;verticalAlign=middle;resizable=0;points=[];" parent="myy1mM1CxkkWLDyJXyVo-17" vertex="1" connectable="0">
          <mxGeometry x="0.0258" y="2" relative="1" as="geometry">
            <mxPoint as="offset" />
          </mxGeometry>
        </mxCell>
        <mxCell id="myy1mM1CxkkWLDyJXyVo-19" value="" style="endArrow=classic;html=1;rounded=0;exitX=0;exitY=0.5;exitDx=0;exitDy=0;entryX=1;entryY=0.5;entryDx=0;entryDy=0;" parent="1" source="myy1mM1CxkkWLDyJXyVo-3" target="gHp_95_mHQC_-6yU2S7S-4" edge="1">
          <mxGeometry width="50" height="50" relative="1" as="geometry">
            <mxPoint x="390" y="620" as="sourcePoint" />
            <mxPoint x="520" y="840" as="targetPoint" />
          </mxGeometry>
        </mxCell>
        <mxCell id="myy1mM1CxkkWLDyJXyVo-20" value="HTTP GET" style="edgeLabel;html=1;align=center;verticalAlign=middle;resizable=0;points=[];" parent="myy1mM1CxkkWLDyJXyVo-19" vertex="1" connectable="0">
          <mxGeometry x="0.0133" y="-1" relative="1" as="geometry">
            <mxPoint x="6" y="1" as="offset" />
          </mxGeometry>
        </mxCell>
        <mxCell id="myy1mM1CxkkWLDyJXyVo-21" value="" style="endArrow=classic;html=1;rounded=0;entryX=0.75;entryY=1;entryDx=0;entryDy=0;exitX=0.75;exitY=0;exitDx=0;exitDy=0;" parent="1" source="myy1mM1CxkkWLDyJXyVo-2" target="myy1mM1CxkkWLDyJXyVo-1" edge="1">
          <mxGeometry width="50" height="50" relative="1" as="geometry">
            <mxPoint x="420" y="270" as="sourcePoint" />
            <mxPoint x="420" y="210" as="targetPoint" />
          </mxGeometry>
        </mxCell>
        <mxCell id="myy1mM1CxkkWLDyJXyVo-22" value="Response" style="edgeLabel;html=1;align=center;verticalAlign=middle;resizable=0;points=[];" parent="myy1mM1CxkkWLDyJXyVo-21" vertex="1" connectable="0">
          <mxGeometry x="0.0133" y="-1" relative="1" as="geometry">
            <mxPoint y="10" as="offset" />
          </mxGeometry>
        </mxCell>
        <mxCell id="myy1mM1CxkkWLDyJXyVo-23" value="" style="endArrow=classic;startArrow=classic;html=1;rounded=0;exitX=1;exitY=0.5;exitDx=0;exitDy=0;entryX=0;entryY=0.5;entryDx=0;entryDy=0;" parent="1" source="myy1mM1CxkkWLDyJXyVo-1" target="myy1mM1CxkkWLDyJXyVo-4" edge="1">
          <mxGeometry width="50" height="50" relative="1" as="geometry">
            <mxPoint x="460" y="480" as="sourcePoint" />
            <mxPoint x="510" y="430" as="targetPoint" />
          </mxGeometry>
        </mxCell>
        <mxCell id="myy1mM1CxkkWLDyJXyVo-25" value="Backup/Restore" style="edgeLabel;html=1;align=center;verticalAlign=middle;resizable=0;points=[];" parent="myy1mM1CxkkWLDyJXyVo-23" vertex="1" connectable="0">
          <mxGeometry x="-0.0222" y="-2" relative="1" as="geometry">
            <mxPoint as="offset" />
          </mxGeometry>
        </mxCell>
        <mxCell id="gHp_95_mHQC_-6yU2S7S-1" value="Aggregation Server Primary" style="rounded=0;whiteSpace=wrap;html=1;" vertex="1" parent="1">
          <mxGeometry x="240" y="830" width="120" height="50" as="geometry" />
        </mxCell>
        <mxCell id="gHp_95_mHQC_-6yU2S7S-2" value="Aggregation Server Replica 1" style="rounded=0;whiteSpace=wrap;html=1;" vertex="1" parent="1">
          <mxGeometry x="240" y="610" width="120" height="50" as="geometry" />
        </mxCell>
        <mxCell id="gHp_95_mHQC_-6yU2S7S-3" value="Aggregation Server Replica 2" style="rounded=0;whiteSpace=wrap;html=1;" vertex="1" parent="1">
          <mxGeometry x="240" y="390" width="120" height="50" as="geometry" />
        </mxCell>
        <mxCell id="gHp_95_mHQC_-6yU2S7S-4" value="Load Balancer" style="rounded=0;whiteSpace=wrap;html=1;" vertex="1" parent="1">
          <mxGeometry x="480" y="610" width="120" height="50" as="geometry" />
        </mxCell>
        <mxCell id="gHp_95_mHQC_-6yU2S7S-10" value="" style="endArrow=classic;html=1;rounded=0;entryX=1;entryY=1;entryDx=0;entryDy=0;exitX=0.25;exitY=0;exitDx=0;exitDy=0;" edge="1" parent="1" source="gHp_95_mHQC_-6yU2S7S-4" target="gHp_95_mHQC_-6yU2S7S-3">
          <mxGeometry width="50" height="50" relative="1" as="geometry">
            <mxPoint x="490" y="600" as="sourcePoint" />
            <mxPoint x="510" y="380" as="targetPoint" />
          </mxGeometry>
        </mxCell>
        <mxCell id="gHp_95_mHQC_-6yU2S7S-14" value="Route" style="edgeLabel;html=1;align=center;verticalAlign=middle;resizable=0;points=[];" vertex="1" connectable="0" parent="gHp_95_mHQC_-6yU2S7S-10">
          <mxGeometry x="0.0145" y="2" relative="1" as="geometry">
            <mxPoint y="11" as="offset" />
          </mxGeometry>
        </mxCell>
        <mxCell id="gHp_95_mHQC_-6yU2S7S-21" value="AS3 Local File" style="rounded=0;whiteSpace=wrap;html=1;" vertex="1" parent="1">
          <mxGeometry x="240" y="500" width="120" height="50" as="geometry" />
        </mxCell>
        <mxCell id="gHp_95_mHQC_-6yU2S7S-22" value="AS2 Local File" style="rounded=0;whiteSpace=wrap;html=1;" vertex="1" parent="1">
          <mxGeometry x="240" y="720" width="120" height="50" as="geometry" />
        </mxCell>
        <mxCell id="gHp_95_mHQC_-6yU2S7S-23" value="AS1 Local File" style="rounded=0;whiteSpace=wrap;html=1;" vertex="1" parent="1">
          <mxGeometry x="240" y="940" width="120" height="50" as="geometry" />
        </mxCell>
        <mxCell id="gHp_95_mHQC_-6yU2S7S-25" value="" style="endArrow=classic;html=1;rounded=0;exitX=0;exitY=0;exitDx=0;exitDy=0;entryX=1;entryY=0;entryDx=0;entryDy=0;" edge="1" parent="1" source="gHp_95_mHQC_-6yU2S7S-4" target="gHp_95_mHQC_-6yU2S7S-2">
          <mxGeometry width="50" height="50" relative="1" as="geometry">
            <mxPoint x="480" y="620" as="sourcePoint" />
            <mxPoint x="360" y="620" as="targetPoint" />
          </mxGeometry>
        </mxCell>
        <mxCell id="gHp_95_mHQC_-6yU2S7S-26" value="Route" style="edgeLabel;html=1;align=center;verticalAlign=middle;resizable=0;points=[];" vertex="1" connectable="0" parent="gHp_95_mHQC_-6yU2S7S-25">
          <mxGeometry x="0.0145" y="2" relative="1" as="geometry">
            <mxPoint y="-4" as="offset" />
          </mxGeometry>
        </mxCell>
        <mxCell id="gHp_95_mHQC_-6yU2S7S-27" value="" style="endArrow=classic;html=1;rounded=0;exitX=0.25;exitY=1;exitDx=0;exitDy=0;entryX=1;entryY=0;entryDx=0;entryDy=0;" edge="1" parent="1" source="gHp_95_mHQC_-6yU2S7S-4" target="gHp_95_mHQC_-6yU2S7S-1">
          <mxGeometry width="50" height="50" relative="1" as="geometry">
            <mxPoint x="490" y="615" as="sourcePoint" />
            <mxPoint x="400" y="750" as="targetPoint" />
          </mxGeometry>
        </mxCell>
        <mxCell id="gHp_95_mHQC_-6yU2S7S-28" value="Route" style="edgeLabel;html=1;align=center;verticalAlign=middle;resizable=0;points=[];" vertex="1" connectable="0" parent="gHp_95_mHQC_-6yU2S7S-27">
          <mxGeometry x="0.0145" y="2" relative="1" as="geometry">
            <mxPoint x="9" y="-20" as="offset" />
          </mxGeometry>
        </mxCell>
        <mxCell id="gHp_95_mHQC_-6yU2S7S-29" value="" style="curved=1;endArrow=classic;html=1;rounded=0;entryX=0.5;entryY=1;entryDx=0;entryDy=0;exitX=1;exitY=0.5;exitDx=0;exitDy=0;" edge="1" parent="1" source="gHp_95_mHQC_-6yU2S7S-1" target="gHp_95_mHQC_-6yU2S7S-4">
          <mxGeometry width="50" height="50" relative="1" as="geometry">
            <mxPoint x="400" y="830" as="sourcePoint" />
            <mxPoint x="590" y="832" as="targetPoint" />
            <Array as="points">
              <mxPoint x="440" y="810" />
              <mxPoint x="510" y="740" />
            </Array>
          </mxGeometry>
        </mxCell>
        <mxCell id="gHp_95_mHQC_-6yU2S7S-30" value="JSON Response" style="edgeLabel;html=1;align=center;verticalAlign=middle;resizable=0;points=[];" vertex="1" connectable="0" parent="gHp_95_mHQC_-6yU2S7S-29">
          <mxGeometry x="0.0258" y="2" relative="1" as="geometry">
            <mxPoint as="offset" />
          </mxGeometry>
        </mxCell>
        <mxCell id="gHp_95_mHQC_-6yU2S7S-31" value="" style="curved=1;endArrow=classic;html=1;rounded=0;entryX=0.5;entryY=0;entryDx=0;entryDy=0;exitX=1;exitY=0.5;exitDx=0;exitDy=0;" edge="1" parent="1" source="gHp_95_mHQC_-6yU2S7S-3" target="gHp_95_mHQC_-6yU2S7S-4">
          <mxGeometry width="50" height="50" relative="1" as="geometry">
            <mxPoint x="480" y="565" as="sourcePoint" />
            <mxPoint x="640" y="380" as="targetPoint" />
            <Array as="points">
              <mxPoint x="420" y="430" />
              <mxPoint x="510" y="530" />
            </Array>
          </mxGeometry>
        </mxCell>
        <mxCell id="gHp_95_mHQC_-6yU2S7S-32" value="JSON Response" style="edgeLabel;html=1;align=center;verticalAlign=middle;resizable=0;points=[];" vertex="1" connectable="0" parent="gHp_95_mHQC_-6yU2S7S-31">
          <mxGeometry x="0.0258" y="2" relative="1" as="geometry">
            <mxPoint as="offset" />
          </mxGeometry>
        </mxCell>
        <mxCell id="gHp_95_mHQC_-6yU2S7S-33" value="" style="endArrow=classic;html=1;rounded=0;exitX=1;exitY=1;exitDx=0;exitDy=0;entryX=0;entryY=1;entryDx=0;entryDy=0;" edge="1" parent="1" source="gHp_95_mHQC_-6yU2S7S-2" target="gHp_95_mHQC_-6yU2S7S-4">
          <mxGeometry width="50" height="50" relative="1" as="geometry">
            <mxPoint x="490" y="610" as="sourcePoint" />
            <mxPoint x="370" y="605" as="targetPoint" />
          </mxGeometry>
        </mxCell>
        <mxCell id="gHp_95_mHQC_-6yU2S7S-34" value="JSON Response" style="edgeLabel;html=1;align=center;verticalAlign=middle;resizable=0;points=[];" vertex="1" connectable="0" parent="gHp_95_mHQC_-6yU2S7S-33">
          <mxGeometry x="0.0145" y="2" relative="1" as="geometry">
            <mxPoint x="-11" y="10" as="offset" />
          </mxGeometry>
        </mxCell>
        <mxCell id="gHp_95_mHQC_-6yU2S7S-37" value="" style="endArrow=classic;html=1;rounded=0;exitX=0.5;exitY=1;exitDx=0;exitDy=0;entryX=0.5;entryY=0;entryDx=0;entryDy=0;" edge="1" parent="1" source="gHp_95_mHQC_-6yU2S7S-3" target="gHp_95_mHQC_-6yU2S7S-21">
          <mxGeometry width="50" height="50" relative="1" as="geometry">
            <mxPoint x="300" y="690" as="sourcePoint" />
            <mxPoint x="350" y="640" as="targetPoint" />
          </mxGeometry>
        </mxCell>
        <mxCell id="gHp_95_mHQC_-6yU2S7S-38" value="Restore/Backup" style="edgeLabel;html=1;align=center;verticalAlign=middle;resizable=0;points=[];" vertex="1" connectable="0" parent="gHp_95_mHQC_-6yU2S7S-37">
          <mxGeometry x="-0.1048" y="2" relative="1" as="geometry">
            <mxPoint as="offset" />
          </mxGeometry>
        </mxCell>
        <mxCell id="gHp_95_mHQC_-6yU2S7S-42" value="" style="endArrow=classic;html=1;rounded=0;exitX=0.5;exitY=1;exitDx=0;exitDy=0;entryX=0.5;entryY=0;entryDx=0;entryDy=0;" edge="1" parent="1" source="gHp_95_mHQC_-6yU2S7S-2" target="gHp_95_mHQC_-6yU2S7S-22">
          <mxGeometry width="50" height="50" relative="1" as="geometry">
            <mxPoint x="340" y="680" as="sourcePoint" />
            <mxPoint x="340" y="700" as="targetPoint" />
          </mxGeometry>
        </mxCell>
        <mxCell id="gHp_95_mHQC_-6yU2S7S-43" value="Restore/Backup" style="edgeLabel;html=1;align=center;verticalAlign=middle;resizable=0;points=[];" vertex="1" connectable="0" parent="gHp_95_mHQC_-6yU2S7S-42">
          <mxGeometry x="-0.1048" y="2" relative="1" as="geometry">
            <mxPoint as="offset" />
          </mxGeometry>
        </mxCell>
        <mxCell id="gHp_95_mHQC_-6yU2S7S-46" value="" style="endArrow=classic;html=1;rounded=0;exitX=0.5;exitY=1;exitDx=0;exitDy=0;entryX=0.5;entryY=0;entryDx=0;entryDy=0;" edge="1" parent="1" source="gHp_95_mHQC_-6yU2S7S-1" target="gHp_95_mHQC_-6yU2S7S-23">
          <mxGeometry width="50" height="50" relative="1" as="geometry">
            <mxPoint x="340" y="900" as="sourcePoint" />
            <mxPoint x="280" y="920" as="targetPoint" />
          </mxGeometry>
        </mxCell>
        <mxCell id="gHp_95_mHQC_-6yU2S7S-47" value="Restore/Backup" style="edgeLabel;html=1;align=center;verticalAlign=middle;resizable=0;points=[];" vertex="1" connectable="0" parent="gHp_95_mHQC_-6yU2S7S-46">
          <mxGeometry x="-0.1048" y="2" relative="1" as="geometry">
            <mxPoint as="offset" />
          </mxGeometry>
        </mxCell>
        <mxCell id="gHp_95_mHQC_-6yU2S7S-49" value="" style="endArrow=classic;html=1;rounded=0;exitX=0.25;exitY=1;exitDx=0;exitDy=0;entryX=0.25;entryY=0;entryDx=0;entryDy=0;" edge="1" parent="1" source="myy1mM1CxkkWLDyJXyVo-1" target="myy1mM1CxkkWLDyJXyVo-2">
          <mxGeometry width="50" height="50" relative="1" as="geometry">
            <mxPoint x="340" y="270" as="sourcePoint" />
            <mxPoint x="380" y="250" as="targetPoint" />
          </mxGeometry>
        </mxCell>
        <mxCell id="gHp_95_mHQC_-6yU2S7S-50" value="HTTP PUT" style="edgeLabel;html=1;align=center;verticalAlign=middle;resizable=0;points=[];" vertex="1" connectable="0" parent="gHp_95_mHQC_-6yU2S7S-49">
          <mxGeometry x="0.0133" y="-1" relative="1" as="geometry">
            <mxPoint y="-10" as="offset" />
          </mxGeometry>
        </mxCell>
        <mxCell id="gHp_95_mHQC_-6yU2S7S-51" value="" style="curved=1;endArrow=classic;html=1;rounded=0;exitX=0;exitY=1;exitDx=0;exitDy=0;entryX=0;entryY=0.5;entryDx=0;entryDy=0;" edge="1" parent="1" source="myy1mM1CxkkWLDyJXyVo-2" target="gHp_95_mHQC_-6yU2S7S-3">
          <mxGeometry width="50" height="50" relative="1" as="geometry">
            <mxPoint x="300" y="320" as="sourcePoint" />
            <mxPoint x="230" y="420" as="targetPoint" />
            <Array as="points">
              <mxPoint x="220" y="320" />
              <mxPoint x="160" y="380" />
            </Array>
          </mxGeometry>
        </mxCell>
        <mxCell id="gHp_95_mHQC_-6yU2S7S-52" value="Synchronize" style="edgeLabel;html=1;align=center;verticalAlign=middle;resizable=0;points=[];" vertex="1" connectable="0" parent="gHp_95_mHQC_-6yU2S7S-51">
          <mxGeometry x="-0.3642" y="8" relative="1" as="geometry">
            <mxPoint as="offset" />
          </mxGeometry>
        </mxCell>
        <mxCell id="gHp_95_mHQC_-6yU2S7S-53" value="" style="curved=1;endArrow=classic;html=1;rounded=0;exitX=0;exitY=0.5;exitDx=0;exitDy=0;entryX=0;entryY=0.5;entryDx=0;entryDy=0;" edge="1" parent="1" source="myy1mM1CxkkWLDyJXyVo-2" target="gHp_95_mHQC_-6yU2S7S-2">
          <mxGeometry width="50" height="50" relative="1" as="geometry">
            <mxPoint x="240" y="290" as="sourcePoint" />
            <mxPoint x="160" y="385" as="targetPoint" />
            <Array as="points">
              <mxPoint x="100" y="290" />
              <mxPoint x="150" y="550" />
            </Array>
          </mxGeometry>
        </mxCell>
        <mxCell id="gHp_95_mHQC_-6yU2S7S-54" value="Synchronize" style="edgeLabel;html=1;align=center;verticalAlign=middle;resizable=0;points=[];" vertex="1" connectable="0" parent="gHp_95_mHQC_-6yU2S7S-53">
          <mxGeometry x="-0.3642" y="8" relative="1" as="geometry">
            <mxPoint x="21" y="171" as="offset" />
          </mxGeometry>
        </mxCell>
        <mxCell id="gHp_95_mHQC_-6yU2S7S-55" value="" style="curved=1;endArrow=classic;html=1;rounded=0;exitX=0;exitY=0;exitDx=0;exitDy=0;entryX=0;entryY=0.5;entryDx=0;entryDy=0;" edge="1" parent="1" source="myy1mM1CxkkWLDyJXyVo-2" target="gHp_95_mHQC_-6yU2S7S-1">
          <mxGeometry width="50" height="50" relative="1" as="geometry">
            <mxPoint x="330" y="305" as="sourcePoint" />
            <mxPoint x="250" y="645" as="targetPoint" />
            <Array as="points">
              <mxPoint x="60" y="260" />
              <mxPoint x="70" y="570" />
            </Array>
          </mxGeometry>
        </mxCell>
        <mxCell id="gHp_95_mHQC_-6yU2S7S-56" value="Synchronize" style="edgeLabel;html=1;align=center;verticalAlign=middle;resizable=0;points=[];" vertex="1" connectable="0" parent="gHp_95_mHQC_-6yU2S7S-55">
          <mxGeometry x="-0.3642" y="8" relative="1" as="geometry">
            <mxPoint x="51" y="344" as="offset" />
          </mxGeometry>
        </mxCell>
      </root>
    </mxGraphModel>
  </diagram>
</mxfile>
